# xmcd CD database file
#
# Track frame offsets:
#	182
#	34692
#	49957
#	78910
#	114235
#	146377
#	168822
#
# Disc length: 2537 seconds
#
# Revision: 0
# Processed by: cddbd v1.5.1PL0 Copyright (c) Steve Scherf et al.
# Submitted via: CDex 1.51
#
DISCID=4c09e707
DTITLE=Gilbert Sigrist Trio - Jazz in France
DYEAR=1991
DGENRE=Jazz
TTITLE0=d'après NOUS N'IRONS PLUS AU BOIS
TTITLE1=d'après IL PLEUT BERGERE
TTITLE2=SUITE D'AUTOMNE sur les motifs de COLCHIQUE DANS LES PRES
TTITLE3=d'après LA LEGENDE DE SAINT NICOLAS
TTITLE4=d'après L'AMOUR DE MOY
TTITLE5=d'après AUX MARCHE DU PALAIS
TTITLE6=d'après TROIS JEUNES TAMBOURS
EXTD=YEAR: 1991
EXTT0=
EXTT1=
EXTT2=
EXTT3=
EXTT4=
EXTT5=
EXTT6=
PLAYORDER=
